<?xml version="1.0" encoding="UTF-8" standalone="no"?>
<svg width="39px" height="46px" viewBox="0 0 39 46" version="1.1" xmlns="http://www.w3.org/2000/svg" xmlns:xlink="http://www.w3.org/1999/xlink" xmlns:sketch="http://www.bohemiancoding.com/sketch/ns">
    <title>note_img</title>
    <description>Created with Sketch (http://www.bohemiancoding.com/sketch)</description>
    <defs></defs>
    <g id="Page-1" stroke="none" stroke-width="1" fill="none" fill-rule="evenodd" sketch:type="MSPage">
        <g id="note_img" sketch:type="MSLayerGroup" transform="translate(2.000000, 0.000000)" fill="#B65A23">
            <g id="layer1" sketch:type="MSShapeGroup">
                <path d="M16.5233233,0 C14.7099203,7.87264631 12.6635781,17.4921972 10.8501771,25.364848 C4.09543688,20.6941457 -0.615657339,24.4904594 0.0653817757,29.8361793 C0.502416166,33.2665945 6.5275363,36.9394163 12.2767674,31.3390457 C13.3454105,26.1191893 15.2696906,17.513637 16.7269795,10.7602386 L27.3769154,18.3071174 C26.29004,23.1994531 25.2221192,28.0598388 24.0519695,33.1398892 C17.2972338,28.4691869 12.5814534,32.26449 13.2624931,37.6102105 C13.6995288,41.040625 19.7256507,44.7087793 25.4748825,39.1084081 L32,10.8688713 C31.9566345,10.857832 31.9132465,10.8471737 31.8698817,10.836135 L31.8832619,10.8194329 C30.9485293,10.0835831 17.4542765,0.237001743 16.5233233,0 L16.5233233,0 Z M17.4781581,6 L28,13.8248446 C27.8399906,14.5547165 27.6848393,15.2769956 27.5277859,16 L17,8.27337788 C17.1358754,7.6099931 17.3636295,6.5765787 17.4781581,6 L17.4781581,6 Z" id="path5065"></path>
            </g>
        </g>
    </g>
</svg>