<?xml version="1.0" encoding="UTF-8" standalone="no"?>
<svg width="162px" height="213px" viewBox="0 0 162 213" version="1.1" xmlns="http://www.w3.org/2000/svg" xmlns:xlink="http://www.w3.org/1999/xlink" xmlns:sketch="http://www.bohemiancoding.com/sketch/ns">
    <title>note_img</title>
    <description>Created with Sketch (http://www.bohemiancoding.com/sketch)</description>
    <defs></defs>
    <g id="Page-1" stroke="none" stroke-width="1" fill="none" fill-rule="evenodd" sketch:type="MSPage">
        <g id="note_img" sketch:type="MSLayerGroup" fill="#F4594E">
            <g id="Page-1" sketch:type="MSShapeGroup">
                <g id="note_img">
                    <g id="layer1">
                        <path d="M83.649324,0 C74.4689715,39.9255635 64.1093642,88.7104284 54.9290215,128.636015 C20.7331492,104.948882 -3.11676528,124.201616 0.330995239,151.312052 C2.54348184,168.709158 33.0456525,187.335611 62.1511352,158.933732 C67.5611408,132.461603 77.3028089,88.8191591 84.6803337,54.5697813 L138.595634,92.8432382 C133.093328,117.654369 127.686979,142.303468 121.763095,168.066581 C87.567246,144.379448 63.6936076,163.627056 67.1413714,190.737496 C69.3538645,208.134598 99.8611068,226.737381 128.966593,198.335498 L162,55.1207047 C161.780462,55.0647196 161.56081,55.0106665 161.341276,54.9546846 L161.409013,54.8699812 C156.67693,51.1381715 88.3622747,1.20193741 83.649324,0 L83.649324,0 L83.649324,0 Z M90.4342593,30 L144,69.1242231 C143.185406,72.7735825 142.395545,76.3849778 141.596001,80 L88,41.3668894 C88.6917294,38.0499655 89.8512047,32.8828935 90.4342593,30 L90.4342593,30 L90.4342593,30 Z" id="path5065"></path>
                    </g>
                </g>
            </g>
        </g>
    </g>
</svg>